<!-- Generator: Adobe Illustrator 19.2.0, SVG Export Plug-In  -->
<svg version="1.1"
	 xmlns="http://www.w3.org/2000/svg" xmlns:xlink="http://www.w3.org/1999/xlink" xmlns:a="http://ns.adobe.com/AdobeSVGViewerExtensions/3.0/"
	 x="0px" y="0px" width="71.1px" height="49.5px" viewBox="0 0 71.1 49.5" style="enable-background:new 0 0 71.1 49.5;"
	 xml:space="preserve">
<defs>
</defs>
<path d="M66.9,26.2c-2.3-2.3-5.9-3.9-9.5-3.9c-0.7,0-1.6,0-2.3,0.3l-1.6-4.3C54.8,18,55.7,18,57,18c2.3,0,4.6,0.3,6.9,1.3l1-2
	c-2.3-1-4.9-1.6-7.5-1.6c-1.6,0-3,0.3-4.3,0.7l-3.3-9.5c-0.3-0.7-1-1.3-1.6-1.3l-0.7-1.3c-0.7-1.3-2-2.3-3.3-3
	c-0.3-0.7-1.3-1.3-2-1.3H37c-1,0-2,1-2,2s1,2,2,2h5.2c0.7,0,1-0.3,1.3-0.7c0.7,0.3,1.6,1,2,1.6l0.3,1.3c-0.7,0.7-1,1.3-0.7,2.3l1,3
	c-1.3-0.7-2.6-1.3-3.9-1.3c0-0.7-0.7-1-1.3-1h-1.6c-0.7,0-1.3,0.7-1.3,1c-3,0.7-5.2,2.3-6.6,3.9L5.6,10.5v3.3l4.3,2.3
	c-1.3,0.3-3,0.7-4.3,1.3l1,2c2-1,4.3-1.3,6.6-1.3s4.6,0.3,6.9,1.3c2,1,3.9,2.3,5.6,3.6c0.7,0.7,1,1,1.6,1.6l2.3,7.9h-3.3
	c-1.3-5.9-6.6-10.2-13.1-10.2C5.9,22.3,0,28.5,0,35.7c0,7.5,5.9,13.4,13.4,13.4c6.9,0,12.8-5.2,13.4-12.1c2.6-0.3,4.9-0.3,5.6-0.3
	c4.9-0.3,6.6-3,8.9-7.9c1-2,2.3-3.9,3.6-5.6c1.3-1.3,3-2.3,4.6-3.3l1.6,4.3c-1,0.7-2,1.3-3,2.3c-2.3,2.3-3.9,5.9-3.9,9.5
	s1.6,6.9,3.9,9.5c2.3,2.3,5.9,3.9,9.5,3.9s6.9-1.6,9.5-3.9c2.3-2.3,3.9-5.9,3.9-9.5C70.5,32.1,69.2,28.9,66.9,26.2z M13.4,43.3
	c-3.9,0-7.5-3.3-7.5-7.5c0-3.9,3.3-7.5,7.5-7.5c3.3,0,5.9,2,6.9,4.6l-7.2,1c-1.3,0-2,1-2,2.3c0,1,1,2,2.3,2c0,0,0,0,0.3,0
	c0,0,3.3-0.3,7.2-0.7C20,40.7,17,43.3,13.4,43.3z M57.4,43.3c-3.9,0-7.5-3.3-7.5-7.5c0-2.3,1.3-4.6,3-5.9l2.3,6.6
	c0.3,1,1.3,1.3,2,1.3c0.3,0,0.3,0,0.7,0c1-0.3,1.6-1.6,1.3-2.6l-2.3-6.6H57c3.9,0,7.5,3.3,7.5,7.5C64.6,40,61.3,43.3,57.4,43.3z"/>
</svg>
