<!-- Generator: Adobe Illustrator 19.2.0, SVG Export Plug-In  -->
<svg version="1.1"
	 xmlns="http://www.w3.org/2000/svg" xmlns:xlink="http://www.w3.org/1999/xlink" xmlns:a="http://ns.adobe.com/AdobeSVGViewerExtensions/3.0/"
	 x="0px" y="0px" width="73.3px" height="49.5px" viewBox="0 0 73.3 49.5" style="enable-background:new 0 0 73.3 49.5;"
	 xml:space="preserve">
<defs>
</defs>
<g>
	<path d="M56.1,8.9V1c-3,0-5.3,1.7-5.3,4S53.1,8.9,56.1,8.9z"/>
	<path d="M64.7,23.8l2-9.2L49.8,8.9l-2.3-5c-0.7-1.3-2-2.3-3.3-3c0-0.3-1-1-1.7-1h-8.3c-1.3,0-2,1-2,2s1,2,2,2h8.3
		c0.7,0,1-0.3,1.3-0.7c0.7,0.3,1.7,1,2,1.7l2,4l-5.9,8.6L1.3,11.9v4.3l8.9,4.6l0.7,2C4.6,24.1,0,29.7,0,36c0,7.6,5.9,13.5,13.5,13.5
		c6.9,0,12.9-5.3,13.5-12.2h19.1c0.7,6.9,6.3,12.2,13.5,12.2c7.6,0,13.5-5.9,13.5-13.5C72.9,30.7,69.6,25.7,64.7,23.8z M13.5,42.2
		c-3.3,0-6.3-2.6-6.3-6.3c0-3.3,2.6-6.3,6.3-6.3c3.3,0,6.3,3,6.3,6.3C19.8,39.6,16.8,42.2,13.5,42.2z M59.4,42.2
		c-3.3,0-6.3-2.6-6.3-6.3c0-3.3,2.6-6.3,6.3-6.3c3.3,0,6.3,2.6,6.3,6.3C65.7,39.6,62.7,42.2,59.4,42.2z"/>
</g>
</svg>
