<!-- Generator: Adobe Illustrator 19.2.0, SVG Export Plug-In  -->
<svg version="1.1"
	 xmlns="http://www.w3.org/2000/svg" xmlns:xlink="http://www.w3.org/1999/xlink" xmlns:a="http://ns.adobe.com/AdobeSVGViewerExtensions/3.0/"
	 x="0px" y="0px" width="102.6px" height="49.5px" viewBox="0 0 102.6 49.5" style="enable-background:new 0 0 102.6 49.5;"
	 xml:space="preserve">
<defs>
</defs>
<path d="M6.3,36c2,0.7,3.6,1,5.3,1c6.9,0,13.9-6.6,13.9-6.6S32.7,37,39.3,37c6.9,0,13.9-6.6,13.9-6.6l0,0l0,0c0,0,7.3,6.6,13.9,6.6
	c6.9,0,13.9-6.6,13.9-6.6s3,3,6.9,5c3.3-4.3,6.3-10.6,8.6-17.8l-25.1,2.3l0,0L60.1,0l-3,1.7l8.3,18.8l-54.5,5.3L6.3,36z M30,21.5
	l2.6-5.6l-18.8,2.6l-2,4.6L30,21.5z M93.4,42.9c-6.3,0-13.9-6.6-13.9-6.6s-7.3,6.6-13.9,6.6c-6.9,0-13.9-6.6-13.9-6.6l0,0l0,0
	c0,0-6.6,6.6-13.9,6.6s-13.9-6.6-13.9-6.6s-6.6,6.6-13.9,6.6c-3,0-6.6-1.3-10.2-4v7.9c3.3,1.7,6.9,2.6,10.2,2.6
	c4.6,0,9.2-1.7,13.9-5c3.6,2.6,8.9,5,13.9,5s9.2-1.7,13.9-5c4.6,3.3,8.9,5,13.9,5c5,0,9.9-2,13.9-5c4.6,3.3,8.9,5,13.9,5l0,0
	c3.3,0,6.3-0.7,9.2-2.3v-7.6C99,41.9,96,42.9,93.4,42.9z"/>
</svg>
