<!-- Generator: Adobe Illustrator 19.2.0, SVG Export Plug-In  -->
<svg version="1.1"
	 xmlns="http://www.w3.org/2000/svg" xmlns:xlink="http://www.w3.org/1999/xlink" xmlns:a="http://ns.adobe.com/AdobeSVGViewerExtensions/3.0/"
	 x="0px" y="0px" width="80.2px" height="49.5px" viewBox="0 0 80.2 49.5" style="enable-background:new 0 0 80.2 49.5;"
	 xml:space="preserve">
<defs>
</defs>
<g>
	<path d="M79.7,40.7c-0.7-0.7-1.6-0.7-2.3,0c-2,2-6.5,5.2-9.8,5.2h-3.9l-6.5-9.1h7.2l0,0l7.5-7.8c-3.6-6.2-15.6-15.3-26.4-17.9
		L39.4,0.7c-0.3-0.7-1.3-1-2-0.3c-0.7,0.3-1,1.3-0.3,1.6l6.2,10.7l-9.1,12H20.5l-3.6-6.5h-6.5L2,37.1h49.5l6.5,9.1h-9.1
		c-1,0-1.6,0.7-1.6,1.6s0.7,1.6,1.6,1.6l0,0h18.6c4.9,0,9.4-3.6,12-5.9C80.4,42.3,80.4,41.4,79.7,40.7z"/>
	<path d="M1,40.1c-0.7,0.7-1,2-1,2.9c0,2.9,2.6,5.5,5.5,5.5h33.2c2.9,0,5.5-2.6,5.5-5.5c0-1-0.3-2-1-2.9H1z"/>
</g>
</svg>
