<!-- Generator: Adobe Illustrator 19.2.0, SVG Export Plug-In  -->
<svg version="1.1"
	 xmlns="http://www.w3.org/2000/svg" xmlns:xlink="http://www.w3.org/1999/xlink" xmlns:a="http://ns.adobe.com/AdobeSVGViewerExtensions/3.0/"
	 x="0px" y="0px" width="78.5px" height="49.5px" viewBox="0 0 78.5 49.5" style="enable-background:new 0 0 78.5 49.5;"
	 xml:space="preserve">
<defs>
</defs>
<path d="M78.5,42.2c0,2-1.7,3.6-3.6,3.6s-3.6-1.7-3.6-3.6c0-2,1.7-3.6,3.6-3.6C76.9,38.9,78.5,40.6,78.5,42.2z M78.5,36.3v3.3H39.9
	c-0.7,5.6-5.3,9.9-10.9,9.9s-10.2-4.3-10.9-9.9H0V35c0.7,0,1.7,0,2.3,0c0-5.9,0-22.1,0-25.7C2.3,5,4,1.3,9.6,0.7
	C14.9,0.3,24.4,0,37.3,0S59.4,0.3,65,1s7.3,4,7.3,8.6c0,4,0,22.4,0,27.1C76.2,36.3,78.5,36.3,78.5,36.3z M34,38.3
	c0-3-2.3-5.3-5.3-5.3s-5.3,2.3-5.3,5.3c0,3,2.3,5.3,5.3,5.3C31.7,43.6,34,41.3,34,38.3z M21.8,9.9h-9.9v8.6h9.6V9.9H21.8z M23.8,9.9
	v8.6h9.6V9.9H23.8z M53.1,9.9v8.6h9.6V9.9H53.1z"/>
</svg>
