<!-- Generator: Adobe Illustrator 19.2.0, SVG Export Plug-In  -->
<svg version="1.1"
	 xmlns="http://www.w3.org/2000/svg" xmlns:xlink="http://www.w3.org/1999/xlink" xmlns:a="http://ns.adobe.com/AdobeSVGViewerExtensions/3.0/"
	 x="0px" y="0px" width="88.1px" height="49.5px" viewBox="0 0 88.1 49.5" style="enable-background:new 0 0 88.1 49.5;"
	 xml:space="preserve">
<defs>
</defs>
<path d="M0,31.7c0,0,0,5,0,7.3c0,2,3,3.3,7.3,3.6c2,4,5.9,6.9,10.6,6.9c3.6,0,6.9-1.7,9.2-4.6h34c2,2.6,5.3,4.6,9.2,4.6
	c4.6,0,8.3-2.6,10.2-6.3c2.3-1.3,5-2.6,6.6-4.6l1-7.6c0,0-1.7-6.3-3.3-10.2c-3-1-9.9-2.6-15.5-3.6C65,12.2,58.4,5,52.8,1
	C42.6-0.3,24.1-0.3,10.6,1c-1.7,0.3-2.3,1.3-2,3l0.7,1.7c-3.6,5.3-6.6,13.2-7.6,16.2l0,0l0,0c0,2.6,0,6.6,0,9.6H0V31.7z M64.4,38
	c0-3.3,2.6-5.9,5.9-5.9s5.9,2.6,5.9,5.9c0,3.3-2.6,5.9-5.9,5.9S64.4,41.3,64.4,38z M29.7,38.9c0-0.7,0.7-1,1-1h26.4c0.7,0,1,0.7,1,1
	c0,0.7-0.7,1-1,1H30.7C30.4,39.9,29.7,39.6,29.7,38.9z M44.9,20.1h-4c-0.7,0-1-0.3-1-1c0-0.7,0.3-1,1-1h4c0.7,0,1,0.3,1,1
	C45.9,19.8,45.2,20.1,44.9,20.1z M12.2,13.9c1.3-3.6,4.6-7.6,6.9-9.6C27.4,4,46.5,4,51.5,4.6c2.6,1.7,6.3,5.3,9.9,9.2l-2,1.7
	c-6.6-0.7-13.5-1-20.1-1.3L38,5.6c-1,0-2,0-3.3,0l1,8.3C26.1,13.9,17.5,13.9,12.2,13.9z M11.9,38c0-3.3,2.6-5.9,5.9-5.9
	s5.9,2.6,5.9,5.9c0,3.3-2.6,5.9-5.9,5.9S11.9,41.3,11.9,38z"/>
</svg>
